<svg width="1024" height="1024" viewBox="0 0 1024 1024" fill="none" xmlns="http://www.w3.org/2000/svg">
  <g transform="translate(100 100) scale(4.12) translate(-16 -8)">
    <path transform="translate(16 8)" d="M 128 0 c 25.2024 0 37.8035 0 47.4296 4.9047 a 45.0000 45.0000 0 0 1 19.6657 19.6657 c 4.9047 9.6260 4.9047 22.2272 4.9047 47.4296 L 200 128 c 0 25.2024 0 37.8035 -4.9047 47.4296 a 45.0000 45.0000 0 0 1 -19.6657 19.6657 c -9.6260 4.9047 -22.2272 4.9047 -47.4296 4.9047 L 72 200 c -25.2024 0 -37.8035 0 -47.4296 -4.9047 a 45.0000 45.0000 0 0 1 -19.6657 -19.6657 c -4.9047 -9.6260 -4.9047 -22.2272 -4.9047 -47.4296 L 0 72 c 0 -25.2024 0 -37.8035 4.9047 -47.4296 a 45.0000 45.0000 0 0 1 19.6657 -19.6657 c 9.6260 -4.9047 22.2272 -4.9047 47.4296 -4.9047 Z" fill="#0F1729"/>
    <path d="M68 133.698V94.3491H76.1522L76.446 103.379L75.6381 103.159C76.2256 99.9285 77.2049 97.5059 78.5758 95.8908C79.9957 94.2757 81.7583 93.4682 83.8637 93.4682C86.3118 93.4682 88.0744 94.3002 89.1516 95.9642C90.2777 97.5793 91.0366 100.075 91.4283 103.452H90.3267C90.8653 100.173 91.9424 97.7017 93.5582 96.0376C95.1739 94.3247 97.1569 93.4682 99.5071 93.4682C102.396 93.4682 104.526 94.5204 105.897 96.6249C107.268 98.6805 107.953 101.935 107.953 106.389V133.698H98.6258V108.371C98.6258 105.826 98.3809 104.113 97.8913 103.232C97.4507 102.351 96.7407 101.911 95.7615 101.911C95.076 101.911 94.464 102.131 93.9254 102.571C93.4358 103.012 93.0441 103.722 92.7503 104.7C92.4565 105.63 92.3097 106.878 92.3097 108.444V133.698H83.6434V108.371C83.6434 105.924 83.423 104.235 82.9824 103.305C82.5417 102.376 81.8073 101.911 80.7791 101.911C80.0936 101.911 79.4816 102.131 78.943 102.571C78.4044 103.012 77.9883 103.722 77.6945 104.7C77.4497 105.63 77.3273 106.878 77.3273 108.444V133.698H68Z" fill="white"/>
    <path d="M115.122 132.304V123.127L144.352 110.647V113.95L115.122 101.47V92.2936L148.906 106.756V117.841L115.122 132.304Z" fill="white"/>
    <path d="M156.854 78H164V138H156.854V78Z" fill="#E5682B"/>
    <path transform="translate(16.5 8.5)" d="M 127.8 0 c 24.9223 0 37.3835 0 46.9026 4.8502 a 44.5000 44.5000 0 0 1 19.4472 19.4472 c 4.8502 9.5191 4.8502 21.9802 4.8502 46.9026 L 199 127.8 c 0 24.9223 0 37.3835 -4.8502 46.9026 a 44.5000 44.5000 0 0 1 -19.4472 19.4472 c -9.5191 4.8502 -21.9802 4.8502 -46.9026 4.8502 L 71.2 199 c -24.9223 0 -37.3835 0 -46.9026 -4.8502 a 44.5000 44.5000 0 0 1 -19.4472 -19.4472 c -4.8502 -9.5191 -4.8502 -21.9802 -4.8502 -46.9026 L 0 71.2 c 0 -24.9223 0 -37.3835 4.8502 -46.9026 a 44.5000 44.5000 0 0 1 19.4472 -19.4472 c 9.5191 -4.8502 21.9802 -4.8502 46.9026 -4.8502 Z" stroke="white" stroke-opacity="0.101961"/>
  </g>
</svg>
