<svg width="1024" height="1024" viewBox="0 0 1024 1024" fill="none" xmlns="http://www.w3.org/2000/svg">
  <g transform="translate(100 100) scale(4.12) translate(-16 -8)">
    <rect x="16" y="8" width="200" height="200" rx="45" fill="#0F1729"/>
    <path d="M87.456 126V98.128H93.228L93.436 104.524L92.864 104.368C93.28 102.08 93.9733 100.364 94.944 99.22C95.9493 98.076 97.1973 97.504 98.688 97.504C100.421 97.504 101.669 98.0933 102.432 99.272C103.229 100.416 103.767 102.184 104.044 104.576H103.264C103.645 102.253 104.408 100.503 105.552 99.324C106.696 98.1107 108.1 97.504 109.764 97.504C111.809 97.504 113.317 98.2493 114.288 99.74C115.259 101.196 115.744 103.501 115.744 106.656V126H109.14V108.06C109.14 106.257 108.967 105.044 108.62 104.42C108.308 103.796 107.805 103.484 107.112 103.484C106.627 103.484 106.193 103.64 105.812 103.952C105.465 104.264 105.188 104.767 104.98 105.46C104.772 106.119 104.668 107.003 104.668 108.112V126H98.532V108.06C98.532 106.327 98.376 105.131 98.064 104.472C97.752 103.813 97.232 103.484 96.504 103.484C96.0187 103.484 95.5853 103.64 95.204 103.952C94.8227 104.264 94.528 104.767 94.32 105.46C94.1467 106.119 94.06 107.003 94.06 108.112V126H87.456ZM120.82 125.012V118.512L141.516 109.672V112.012L120.82 103.172V96.672L144.74 106.916V114.768L120.82 125.012Z" fill="white"/>
    <rect x="151" y="87" width="5" height="42" fill="#E5682B"/>
    <rect x="16.5" y="8.5" width="199" height="199" rx="44.5" stroke="white" stroke-opacity="0.101961"/>
  </g>
</svg>
