<svg viewBox="0 0 14 14" fill="none" xmlns="http://www.w3.org/2000/svg">
<path d="M8.16649 1.1662H3.50029C3.1909 1.1662 2.89419 1.28913 2.67541 1.50794C2.45664 1.72675 2.33374 2.02352 2.33374 2.33296V11.667C2.33374 11.9765 2.45664 12.2733 2.67541 12.4921C2.89419 12.7109 3.1909 12.8338 3.50029 12.8338H10.4996C10.809 12.8338 11.1057 12.7109 11.3245 12.4921C11.5432 12.2733 11.6661 11.9765 11.6661 11.667V4.66648M8.16649 1.1662C8.35113 1.1659 8.534 1.20214 8.70458 1.27282C8.87515 1.34351 9.03007 1.44725 9.16039 1.57807L11.2532 3.67123C11.3843 3.80162 11.4883 3.95671 11.5592 4.12753C11.6301 4.29835 11.6664 4.48153 11.6661 4.66648M8.16649 1.1662V4.0831C8.16649 4.23782 8.22794 4.38621 8.33733 4.49561C8.44671 4.60502 8.59507 4.66648 8.74976 4.66648L11.6661 4.66648M5.25011 8.75014H8.74976M6.99994 10.5003V7" stroke="currentColor" stroke-width="2" stroke-linecap="round"/>
</svg>
