<svg viewBox="0 0 16 16" fill="none" xmlns="http://www.w3.org/2000/svg">
<path d="M9.33317 1.33283H4.00037C3.64679 1.33283 3.30768 1.47331 3.05766 1.72338C2.80764 1.97345 2.66718 2.31262 2.66718 2.66627V13.3338C2.66718 13.6874 2.80764 14.0266 3.05766 14.2767C3.30768 14.5267 3.64679 14.6672 4.00037 14.6672H11.9996C12.3532 14.6672 12.6923 14.5267 12.9423 14.2767C13.1923 14.0266 13.3328 13.6874 13.3328 13.3338V5.33315M9.33317 1.33283C9.54419 1.33248 9.75319 1.3739 9.94813 1.45468C10.1431 1.53547 10.3201 1.65403 10.4691 1.80353L12.8608 4.19572C13.0107 4.34474 13.1296 4.52198 13.2106 4.7172C13.2916 4.91243 13.3331 5.12178 13.3328 5.33315M9.33317 1.33283V4.66642C9.33317 4.84325 9.4034 5.01283 9.52842 5.13787C9.65343 5.2629 9.82298 5.33314 9.99977 5.33314L13.3328 5.33315M6.66677 8.33338L5.33357 10.0002L6.66677 11.667M9.33317 8.33338L10.6664 10.0002L9.33317 11.667" stroke="currentColor" stroke-width="2" stroke-linecap="round"/>
</svg>
