<svg viewBox="0 0 16 16" fill="none" xmlns="http://www.w3.org/2000/svg">
<path d="M8.43878 14.6672H11.9994C12.353 14.6672 12.6922 14.5267 12.9422 14.2766C13.1922 14.0266 13.3327 13.6874 13.3327 13.3338V5.33312M13.3327 5.33312C13.3332 5.12184 13.2919 4.91255 13.2111 4.71733C13.1304 4.52211 13.0117 4.34482 12.8621 4.19569L10.4701 1.8035C10.321 1.65384 10.1437 1.53519 9.9485 1.4544C9.75329 1.37361 9.54403 1.33228 9.33277 1.3328M13.3327 5.33312L9.99943 5.33311C9.82262 5.33311 9.65305 5.26287 9.52803 5.13783C9.403 5.0128 9.33277 4.84322 9.33277 4.66639V1.3328M9.33277 1.3328H3.9995C3.64588 1.3328 3.30674 1.47329 3.0567 1.72335C2.80665 1.97342 2.66618 2.31259 2.66618 2.66624V8.8934M6.91814 8.4146C7.18362 8.14936 7.54358 8.00046 7.91884 8.00064C8.2941 8.00083 8.65391 8.15009 8.91912 8.4156C9.18434 8.6811 9.33322 9.04109 9.33304 9.41638C9.33285 9.79167 9.1836 10.1515 8.91812 10.4168L5.57283 13.7584C5.41441 13.9169 5.21861 14.0329 5.0035 14.0957L3.09219 14.6538C3.03482 14.6705 2.97402 14.6715 2.91613 14.6567C2.85825 14.6418 2.80541 14.6117 2.76316 14.5695C2.7209 14.5272 2.69079 14.4744 2.67596 14.4165C2.66113 14.3586 2.66213 14.2978 2.67886 14.2404L3.23619 12.3276C3.2991 12.1127 3.41511 11.9171 3.57352 11.7589L6.91814 8.4146Z" stroke="currentColor" stroke-width="2" stroke-linecap="round"/>
</svg>
