<svg viewBox="0 0 16 16" fill="none" xmlns="http://www.w3.org/2000/svg">
<path d="M14.2767 12.9423C14.0266 13.1923 13.6874 13.3328 13.3338 13.3328H2.66626C2.31261 13.3328 1.97345 13.1923 1.72338 12.9423C1.47331 12.6923 1.33282 12.3531 1.33282 11.9995V3.33327C1.33282 2.97967 1.47331 2.64054 1.72338 2.39051C1.97345 2.14047 2.31261 2 2.66626 2H5.28647C5.50723 2.00004 5.72453 2.05487 5.91886 2.15959C6.11319 2.26431 6.27848 2.41563 6.3999 2.59997L6.93994 3.39993C7.06259 3.58618 7.23 3.73868 7.42685 3.8435C7.62369 3.94832 7.84369 4.00209 8.0667 3.99991H13.3338C13.6874 3.99991 14.0266 4.14038 14.2767 4.39041C14.5267 4.64045 14.6672 4.97957 14.6672 5.33318V11.9995C14.6672 12.3531 14.5267 12.6923 14.2767 12.9423Z" stroke="currentColor" stroke-width="2" stroke-linecap="round"/>
</svg>
