<svg viewBox="0 0 14 14" fill="none" xmlns="http://www.w3.org/2000/svg">
<path d="M5.64111 2.41326C5.67325 2.07513 5.8303 1.76112 6.08158 1.53259C6.33286 1.30406 6.66032 1.17743 6.99998 1.17743C7.33964 1.17743 7.6671 1.30406 7.91838 1.53259C8.16966 1.76112 8.32671 2.07513 8.35886 2.41326C8.37817 2.6317 8.44983 2.84226 8.56777 3.02713C8.6857 3.212 8.84644 3.36574 9.03638 3.47533C9.22631 3.58491 9.43986 3.64713 9.65893 3.65671C9.87801 3.66629 10.0962 3.62294 10.2949 3.53035C10.6036 3.39022 10.9533 3.36994 11.2761 3.47346C11.5989 3.57699 11.8716 3.7969 12.0412 4.09041C12.2107 4.38391 12.265 4.73001 12.1935 5.06135C12.1219 5.39268 11.9297 5.68554 11.6541 5.88293C11.4747 6.00884 11.3282 6.17612 11.2271 6.37061C11.1259 6.56511 11.0731 6.78109 11.0731 7.00031C11.0731 7.21952 11.1259 7.43551 11.2271 7.63C11.3282 7.82449 11.4747 7.99177 11.6541 8.11768C11.9297 8.31507 12.1219 8.60793 12.1935 8.93926C12.265 9.2706 12.2107 9.6167 12.0412 9.9102C11.8716 10.2037 11.5989 10.4236 11.2761 10.5271C10.9533 10.6307 10.6036 10.6104 10.2949 10.4703C10.0962 10.3777 9.87801 10.3343 9.65893 10.3439C9.43986 10.3535 9.22631 10.4157 9.03638 10.5253C8.84644 10.6349 8.6857 10.7886 8.56777 10.9735C8.44983 11.1584 8.37817 11.3689 8.35886 11.5873C8.32671 11.9255 8.16966 12.2395 7.91838 12.468C7.6671 12.6965 7.33964 12.8232 6.99998 12.8232C6.66032 12.8232 6.33286 12.6965 6.08158 12.468C5.8303 12.2395 5.67325 11.9255 5.64111 11.5873C5.62182 11.3688 5.55016 11.1582 5.43219 10.9733C5.31423 10.7883 5.15342 10.6345 4.96341 10.5249C4.77339 10.4153 4.55976 10.3531 4.34061 10.3436C4.12146 10.3341 3.90324 10.3775 3.70444 10.4703C3.39579 10.6104 3.04605 10.6307 2.72327 10.5271C2.4005 10.4236 2.12779 10.2037 1.95822 9.9102C1.78865 9.6167 1.73436 9.2706 1.8059 8.93926C1.87744 8.60793 2.06971 8.31507 2.34527 8.11768C2.52472 7.99177 2.6712 7.82449 2.77232 7.63C2.87345 7.43551 2.92625 7.21952 2.92625 7.00031C2.92625 6.78109 2.87345 6.56511 2.77232 6.37061C2.6712 6.17612 2.52472 6.00884 2.34527 5.88293C2.07009 5.68544 1.87817 5.39269 1.8068 5.06159C1.73543 4.73048 1.78971 4.38466 1.9591 4.09135C2.12848 3.79803 2.40087 3.57817 2.72333 3.47449C3.04578 3.37081 3.39526 3.39072 3.70386 3.53035C3.90263 3.62294 4.12079 3.66629 4.33986 3.65671C4.55894 3.64713 4.77248 3.58491 4.96242 3.47533C5.15236 3.36574 5.31309 3.212 5.43103 3.02713C5.54896 2.84226 5.62062 2.6317 5.63994 2.41326M8.74951 7.00051C8.74951 7.96701 7.96601 8.75051 6.99951 8.75051C6.03301 8.75051 5.24951 7.96701 5.24951 7.00051C5.24951 6.03401 6.03301 5.25051 6.99951 5.25051C7.96601 5.25051 8.74951 6.03401 8.74951 7.00051Z" stroke="currentColor" stroke-width="2" stroke-linecap="round"/>
</svg>
