<svg width="120" height="28" viewBox="0 0 120 28" fill="none" xmlns="http://www.w3.org/2000/svg">
<g id="logo-box">
<rect width="34" height="28" rx="4" fill="#0F1729"/>
<path id="m&#62;" d="M8.42 19V10.96H10.085L10.145 12.805L9.98 12.76C10.1 12.1 10.3 11.605 10.58 11.275C10.87 10.945 11.23 10.78 11.66 10.78C12.16 10.78 12.52 10.95 12.74 11.29C12.97 11.62 13.125 12.13 13.205 12.82H12.98C13.09 12.15 13.31 11.645 13.64 11.305C13.97 10.955 14.375 10.78 14.855 10.78C15.445 10.78 15.88 10.995 16.16 11.425C16.44 11.845 16.58 12.51 16.58 13.42V19H14.675V13.825C14.675 13.305 14.625 12.955 14.525 12.775C14.435 12.595 14.29 12.505 14.09 12.505C13.95 12.505 13.825 12.55 13.715 12.64C13.615 12.73 13.535 12.875 13.475 13.075C13.415 13.265 13.385 13.52 13.385 13.84V19H11.615V13.825C11.615 13.325 11.57 12.98 11.48 12.79C11.39 12.6 11.24 12.505 11.03 12.505C10.89 12.505 10.765 12.55 10.655 12.64C10.545 12.73 10.46 12.875 10.4 13.075C10.35 13.265 10.325 13.52 10.325 13.84V19H8.42ZM18.0441 18.715V16.84L24.0141 14.29V14.965L18.0441 12.415V10.54L24.9441 13.495V15.76L18.0441 18.715Z" fill="white"/>
<rect id="cursor" x="28" y="7" width="2" height="14" fill="#E5682B"/>
</g>
<path id="markdon" d="M43.188 20.5V10.852H45.618L45.708 13.174L45.456 13.066C45.588 12.55 45.786 12.112 46.05 11.752C46.326 11.392 46.656 11.116 47.04 10.924C47.424 10.732 47.844 10.636 48.3 10.636C49.104 10.636 49.752 10.87 50.244 11.338C50.748 11.806 51.072 12.436 51.216 13.228L50.874 13.246C50.982 12.682 51.168 12.208 51.432 11.824C51.708 11.428 52.044 11.134 52.44 10.942C52.836 10.738 53.28 10.636 53.772 10.636C54.444 10.636 55.02 10.774 55.5 11.05C55.98 11.326 56.352 11.74 56.616 12.292C56.88 12.832 57.012 13.498 57.012 14.29V20.5H54.312V15.046C54.312 14.29 54.198 13.726 53.97 13.354C53.742 12.97 53.37 12.778 52.854 12.778C52.53 12.778 52.254 12.868 52.026 13.048C51.798 13.228 51.618 13.492 51.486 13.84C51.366 14.176 51.306 14.59 51.306 15.082V20.5H48.876V15.082C48.876 14.338 48.768 13.768 48.552 13.372C48.336 12.976 47.964 12.778 47.436 12.778C47.112 12.778 46.83 12.868 46.59 13.048C46.362 13.228 46.188 13.492 46.068 13.84C45.948 14.188 45.888 14.602 45.888 15.082V20.5H43.188ZM62.0285 20.716C61.0325 20.716 60.2165 20.488 59.5805 20.032C58.9565 19.564 58.6445 18.916 58.6445 18.088C58.6445 17.236 58.9085 16.582 59.4365 16.126C59.9765 15.658 60.7685 15.316 61.8125 15.1L64.9265 14.488C64.9265 13.864 64.7825 13.396 64.4945 13.084C64.2185 12.76 63.8165 12.598 63.2885 12.598C62.7725 12.598 62.3705 12.718 62.0825 12.958C61.7945 13.186 61.6085 13.528 61.5245 13.984L58.8065 13.858C58.9865 12.802 59.4605 12.004 60.2285 11.464C61.0085 10.912 62.0285 10.636 63.2885 10.636C64.7285 10.636 65.8085 10.978 66.5285 11.662C67.2605 12.346 67.6265 13.348 67.6265 14.668V17.962C67.6265 18.238 67.6685 18.424 67.7525 18.52C67.8485 18.604 67.9865 18.646 68.1665 18.646H68.4365V20.5C68.3525 20.524 68.2145 20.548 68.0225 20.572C67.8425 20.596 67.6625 20.608 67.4825 20.608C67.0985 20.608 66.7385 20.542 66.4025 20.41C66.0785 20.278 65.8145 20.056 65.6105 19.744C65.4065 19.42 65.3045 18.964 65.3045 18.376L65.5385 18.556C65.4185 18.988 65.2025 19.366 64.8905 19.69C64.5905 20.014 64.1945 20.266 63.7025 20.446C63.2225 20.626 62.6645 20.716 62.0285 20.716ZM62.6765 18.862C63.1205 18.862 63.5105 18.778 63.8465 18.61C64.1825 18.43 64.4465 18.172 64.6385 17.836C64.8305 17.5 64.9265 17.104 64.9265 16.648V16.18L62.7305 16.648C62.2985 16.732 61.9685 16.876 61.7405 17.08C61.5245 17.272 61.4165 17.524 61.4165 17.836C61.4165 18.16 61.5245 18.412 61.7405 18.592C61.9565 18.772 62.2685 18.862 62.6765 18.862ZM69.854 20.5V10.852H72.41L72.5 13.66L72.302 13.606C72.458 12.634 72.734 11.932 73.13 11.5C73.526 11.068 74.072 10.852 74.768 10.852H75.65V13.084H74.768C74.264 13.084 73.85 13.15 73.526 13.282C73.202 13.414 72.956 13.624 72.788 13.912C72.632 14.2 72.554 14.59 72.554 15.082V20.5H69.854ZM77.061 20.5V7.72H79.761V14.812L83.343 10.852H86.583L82.839 14.83L86.691 20.5H83.739L81.093 16.36L79.761 17.782V20.5H77.061ZM90.8701 20.716C90.0541 20.716 89.3461 20.512 88.7461 20.104C88.1581 19.684 87.7021 19.102 87.3781 18.358C87.0661 17.602 86.9101 16.708 86.9101 15.676C86.9101 14.644 87.0721 13.756 87.3961 13.012C87.7201 12.256 88.1761 11.674 88.7641 11.266C89.3641 10.846 90.0661 10.636 90.8701 10.636C91.5541 10.636 92.1421 10.78 92.6341 11.068C93.1381 11.344 93.5161 11.728 93.7681 12.22V7.72H96.4681V20.5H93.8941L93.8401 19.078C93.5761 19.594 93.1801 19.996 92.6521 20.284C92.1361 20.572 91.5421 20.716 90.8701 20.716ZM91.7521 18.646C92.1841 18.646 92.5501 18.532 92.8501 18.304C93.1501 18.076 93.3781 17.746 93.5341 17.314C93.6901 16.87 93.7681 16.324 93.7681 15.676C93.7681 15.016 93.6901 14.47 93.5341 14.038C93.3781 13.594 93.1501 13.264 92.8501 13.048C92.5501 12.82 92.1841 12.706 91.7521 12.706C91.1161 12.706 90.6121 12.976 90.2401 13.516C89.8681 14.044 89.6821 14.764 89.6821 15.676C89.6821 16.576 89.8681 17.296 90.2401 17.836C90.6241 18.376 91.1281 18.646 91.7521 18.646ZM103.039 20.716C102.055 20.716 101.197 20.512 100.465 20.104C99.7326 19.684 99.1626 19.096 98.7546 18.34C98.3466 17.584 98.1426 16.696 98.1426 15.676C98.1426 14.656 98.3466 13.774 98.7546 13.03C99.1626 12.274 99.7326 11.686 100.465 11.266C101.197 10.846 102.055 10.636 103.039 10.636C104.023 10.636 104.881 10.846 105.613 11.266C106.345 11.686 106.915 12.274 107.323 13.03C107.731 13.774 107.935 14.656 107.935 15.676C107.935 16.696 107.731 17.584 107.323 18.34C106.915 19.096 106.345 19.684 105.613 20.104C104.881 20.512 104.023 20.716 103.039 20.716ZM103.039 18.646C103.711 18.646 104.233 18.388 104.605 17.872C104.977 17.344 105.163 16.612 105.163 15.676C105.163 14.74 104.977 14.014 104.605 13.498C104.233 12.97 103.711 12.706 103.039 12.706C102.367 12.706 101.845 12.97 101.473 13.498C101.101 14.014 100.915 14.74 100.915 15.676C100.915 16.612 101.101 17.344 101.473 17.872C101.845 18.388 102.367 18.646 103.039 18.646ZM109.616 20.5V10.852H112.046L112.154 13.678L111.812 13.588C111.908 12.868 112.1 12.292 112.388 11.86C112.688 11.428 113.06 11.116 113.504 10.924C113.948 10.732 114.434 10.636 114.962 10.636C115.658 10.636 116.246 10.786 116.726 11.086C117.218 11.386 117.59 11.812 117.842 12.364C118.106 12.904 118.238 13.546 118.238 14.29V20.5H115.538V15.19C115.538 14.674 115.496 14.236 115.412 13.876C115.328 13.516 115.178 13.246 114.962 13.066C114.746 12.874 114.446 12.778 114.062 12.778C113.498 12.778 113.066 12.988 112.766 13.408C112.466 13.816 112.316 14.41 112.316 15.19V20.5H109.616Z" fill="#0F1729"/>
</svg>
